<?xml version="1.0" encoding="UTF-8"?>
<svg xmlns="http://www.w3.org/2000/svg" viewBox="0 0 1337.09 429.07">
  <g id="a" data-name="S" fill="red">
    <path d="m64.2,408.6c-19.2-5.6-34.71-13.4-46.5-23.4-11.8-9.99-17.7-21.6-17.7-34.8,0-4.8,3.99-28.4,12-70.8h10.8v4.2c0,38.01,8.3,65.7,24.9,83.1,16.59,17.4,41.9,26.1,75.9,26.1,14.4,0,28.59-2.9,42.6-8.7,14-5.79,25.5-14.3,34.5-25.5,9-11.19,13.5-24.39,13.5-39.6,0-13.2-4.2-24.99-12.6-35.4-8.4-10.4-21.81-21.99-40.2-34.8l-66-43.8c-19.6-13.2-33.51-25.89-41.7-38.1-8.2-12.2-12.3-26.7-12.3-43.5,0-23.19,6.09-44.19,18.3-63,12.2-18.8,28.7-33.6,49.5-44.4C129.99,5.4,152.79,0,177.6,0c19.2,0,37.8,2.61,55.8,7.8,18,5.2,32.79,12.81,44.4,22.8,11.6,10,17.4,21.4,17.4,34.2,0,2.01-.81,7.41-2.4,16.2l-9.6,55.2h-10.8v-4.2c0-38-8.01-65.49-24-82.5-16-17-41.01-25.5-75-25.5-13.2,0-26.1,3.1-38.7,9.3-12.6,6.21-22.9,14.8-30.9,25.8-8.01,11.01-12,23.31-12,36.9,0,12.81,4.1,23.8,12.3,33,8.19,9.21,22.1,20.61,41.7,34.2l66,43.8c20.4,13.6,35.3,26.5,44.7,38.7,9.39,12.21,14.1,26.31,14.1,42.3,0,24.4-6.7,46.41-20.1,66-13.41,19.6-31.3,35.01-53.7,46.2-22.41,11.19-46.41,16.8-72,16.8-21.21,0-41.4-2.8-60.6-8.4Z"/>
  </g>
  <g id="b" data-name="h">
    <path d="m318.5,197.7c3.99-24.39,8.9-53.19,14.7-86.4,5.79-33.2,8.7-51.39,8.7-54.6,0-11.19-2.61-19.7-7.8-25.5-5.2-5.79-14.01-8.7-26.4-8.7h-12l2.4-12h54c16.8,0,28.5,2.4,35.1,7.2,6.6,4.8,9.9,14.61,9.9,29.4,0,5.2-1.11,15.3-3.3,30.3-2.2,15-6.3,38.7-12.3,71.1,10.8-8.79,23.3-15.99,37.5-21.6,14.19-5.6,29.49-8.4,45.9-8.4,57.2,0,85.8,25.6,85.8,76.8,0,5.61-1.9,20.4-5.7,44.4-3.81,24-13.3,79.6-28.5,166.8h-54c22.4-125.19,33.6-192.99,33.6-203.4,0-19.59-5.1-34.1-15.3-43.5-10.2-9.39-23.1-14.1-38.7-14.1-20.01,0-41.8,10.6-65.4,31.8l-40.2,229.2h-54l36-208.8Z"/>
  </g>
  <g id="c" data-name="i">
    <path d="m585.26,280.37c4.34-23.95,6.44-37.34,6.3-40.16-.41-7.89-3.33-13.74-8.72-17.54-5.4-3.8-14.31-5.71-26.7-5.71h0l3.03-8.46h40.33c16.4,0,28.19,1.76,35.38,5.28,7.18,3.53,11.04,10.36,11.57,20.5.13,2.54-.8,9.66-2.78,21.35-1.99,11.7-5.67,31.22-11.03,58.55l-17.93,93.01h-54c12.02-60.59,20.2-102.87,24.55-126.83Z"/>
  </g>
  <g id="d" data-name="Star">
    <polygon points="597.26 143.68 596.15 107.89 619.22 135.27 652.91 123.16 633.99 153.56 655.92 181.86 621.17 173.27 601.03 202.87 598.46 167.16 564.08 157.15 597.26 143.68"/>
  </g>
  <g id="e" data-name="f-bot">
    <path d="m778.75,139.07c-12.03,61.37-24.07,122.74-36.1,184.11-5.16,25.61-12.5,46.05-22.03,61.32-9.54,15.27-23.04,26.51-40.51,33.74-17.48,7.22-40.4,10.84-68.81,10.84l2.23-9.85c18.81,0,34.56-8.37,47.26-25.12,12.7-16.75,21.99-40.39,27.86-70.92,11.36-57.9,22.71-115.79,34.07-173.69,9.13-2.05,18.6-4.01,28.42-5.83,9.46-1.75,18.68-3.28,27.62-4.6Z"/>
  </g>
  <g id="f" data-name="f-top">
    <path d="m730.41,110.99c.75-5.3,2.08-12.72,4.59-21.35,2.36-8.11,9.01-34.13,26.58-51.94,20.91-21.19,52.57-31.79,94.96-31.79,25.2,0,41.64,2.46,49.33,7.39,7.27,4.27,12.8,11.66,16.59,22.16l-20.19,12.31c-4.54-7.55-11.03-13.13-19.49-16.75-8.46-3.61-19.5-5.42-33.09-5.42-14.4,0-26.82,4.93-37.24,14.78-10.43,9.85-18.24,26.27-23.44,49.25-1.11,4.93-2.23,9.85-3.34,14.78-2.83.24-5.68.49-8.54.76-16.05,1.51-31.63,3.48-46.71,5.81Z"/>
  </g>
  <g id="g" data-name="t-bot">
    <path d="m959.18,139.7c-25.81,141.18-36.73,203.44-36.85,209.04-.55,25.9,10.57,38.86,33.37,38.86,9.6,0,17.92-1.07,24.97-3.24,7.04-2.16,14.41-5.39,22.11-9.71l3.92,12.95c-10.97,7.77-22.4,14.03-34.3,18.78-11.9,4.75-27.06,7.12-45.45,7.12s-33.4-5.18-43.77-15.54c-10.38-10.36-15.35-25.68-14.92-45.98.15-6.9,12.31-76.88,38.14-218.93,0,0,11.98.73,24.83,2.32,18.67,1.94,27.95,4.34,27.95,4.34Z"/>
  </g>
  <g id="h" data-name="t-top">
    <path d="m911.43,105.61l11.39-61.25,37.43-38.86h24l-20.25,107.91"/>
  </g>
  <g id="i" data-name="x-bot">
    <path d="m1174.6,312.38c-11.3,15.37-22.61,30.75-33.91,46.12-10.81,15.21-22.64,27-35.5,35.4-12.86,8.4-25.88,12.6-39.08,12.6h-54l1.99-12c26.49-2.79,50.34-18.8,71.58-48,20.98-28.39,41.96-56.78,62.94-85.17,4.62,7.29,9.35,15.43,13.96,24.44,4.79,9.37,8.74,18.31,12.02,26.6Z"/>
  </g>
  <g id="j" data-name="x-top">
    <path d="m1176.04,220.74l35.47-48.24c10.81-15.2,22.64-27,35.49-35.4,12.86-8.4,25.88-12.6,39.08-12.6h51s-1.99,12-1.99,12c-24.61,3.21-47.47,19.2-68.58,48l-57.9,77.32"/>
  </g>
  <g id="k" data-name="swoosh">
    <path d="m655.04,168.22l-11.84-15.42,11.44-17.8s381.42-107.52,543.17,130.5c34,48.5,60.26,82.64,60.26,82.64,19.82,29.2,45.45,43.57,71.8,46.36l1.42,12h-54c-13.2,0-26.03-4.2-38.48-12.6-12.45-8.4-37.25-43.63-37.25-43.63l-26.96-37.89c-115.3-289-519.56-144.16-519.56-144.16Z"/>
  </g>
</svg>
